HIERARCHY
ROOT Hips
{
	OFFSET 0.00000 0.00000 0.00000
	CHANNELS 6 Xposition Yposition Zposition Zrotation Yrotation Xrotation 
	JOINT LHipJoint
	{
		OFFSET 0 0 0
		CHANNELS 3 Zrotation Yrotation Xrotation
		JOINT LeftUpLeg
		{
			OFFSET 1.28858 -1.83292 1.03970
			CHANNELS 3 Zrotation Yrotation Xrotation
			JOINT LeftLeg
			{
				OFFSET 2.47846 -6.80952 0.00000
				CHANNELS 3 Zrotation Yrotation Xrotation
				JOINT LeftFoot
				{
					OFFSET 2.75274 -7.56311 0.00000
					CHANNELS 3 Zrotation Yrotation Xrotation
					JOINT LeftToeBase
					{
						OFFSET 0.12848 -0.35301 1.68223
						CHANNELS 3 Zrotation Yrotation Xrotation
						End Site
						{
							OFFSET 0.00000 -0.00000 0.87311
						}
					}
				}
			}
		}
	}
	JOINT RHipJoint
	{
		OFFSET 0 0 0
		CHANNELS 3 Zrotation Yrotation Xrotation
		JOINT RightUpLeg
		{
			OFFSET -1.31183 -1.83292 1.03970
			CHANNELS 3 Zrotation Yrotation Xrotation
			JOINT RightLeg
			{
				OFFSET -2.44740 -6.72417 0.00000
				CHANNELS 3 Zrotation Yrotation Xrotation
				JOINT RightFoot
				{
					OFFSET -2.67343 -7.34519 0.00000
					CHANNELS 3 Zrotation Yrotation Xrotation
					JOINT RightToeBase
					{
						OFFSET -0.16914 -0.46471 1.77626
						CHANNELS 3 Zrotation Yrotation Xrotation
						End Site
						{
							OFFSET -0.00000 -0.00000 0.92777
						}
					}
				}
			}
		}
	}
	JOINT LowerBack
	{
		OFFSET 0 0 0
		CHANNELS 3 Zrotation Yrotation Xrotation
		JOINT Spine
		{
			OFFSET 0.01249 2.14252 0.03842
			CHANNELS 3 Zrotation Yrotation Xrotation
			JOINT Spine1
			{
				OFFSET -0.02957 2.14199 -0.03751
				CHANNELS 3 Zrotation Yrotation Xrotation
				JOINT Neck
				{
					OFFSET 0 0 0
					CHANNELS 3 Zrotation Yrotation Xrotation
					JOINT Neck1
					{
						OFFSET -0.01678 1.65709 -0.05476
						CHANNELS 3 Zrotation Yrotation Xrotation
						JOINT Head
						{
							OFFSET 0.07912 1.58331 -0.11843
							CHANNELS 3 Zrotation Yrotation Xrotation
							End Site
							{
								OFFSET 0.03298 1.73940 -0.04271
							}
						}
					}
				}
				JOINT LeftShoulder
				{
					OFFSET 0 0 0
					CHANNELS 3 Zrotation Yrotation Xrotation
					JOINT LeftArm
					{
						OFFSET 3.39556 1.16496 0.08673
						CHANNELS 3 Zrotation Yrotation Xrotation
						JOINT LeftForeArm
						{
							OFFSET 5.23910 -0.00000 -0.00000
							CHANNELS 3 Zrotation Yrotation Xrotation
							JOINT LeftHand
							{
								OFFSET 3.31467 -0.00000 0.00000
								CHANNELS 3 Zrotation Yrotation Xrotation
								JOINT LeftFingerBase
								{
									OFFSET 0 0 0
									CHANNELS 3 Zrotation Yrotation Xrotation
									JOINT LeftHandIndex1
									{
										OFFSET 0.96590 -0.00000 0.00000
										CHANNELS 3 Zrotation Yrotation Xrotation
										End Site
										{
											OFFSET 0.77873 -0.00000 0.00000
										}
									}
								}
								JOINT LThumb
								{
									OFFSET 0 0 0
									CHANNELS 3 Zrotation Yrotation Xrotation
									End Site
									{
										OFFSET 0.79062 -0.00000 0.79062
									}
								}
							}
						}
					}
				}
				JOINT RightShoulder
				{
					OFFSET 0 0 0
					CHANNELS 3 Zrotation Yrotation Xrotation
					JOINT RightArm
					{
						OFFSET -3.27193 1.31331 0.33940
						CHANNELS 3 Zrotation Yrotation Xrotation
						JOINT RightForeArm
						{
							OFFSET -5.30252 -0.00000 0.00000
							CHANNELS 3 Zrotation Yrotation Xrotation
							JOINT RightHand
							{
								OFFSET -3.67875 -0.00000 0.00000
								CHANNELS 3 Zrotation Yrotation Xrotation
								JOINT RightFingerBase
								{
									OFFSET 0 0 0
									CHANNELS 3 Zrotation Yrotation Xrotation
									JOINT RightHandIndex1
									{
										OFFSET -0.59481 -0.00000 0.00000
										CHANNELS 3 Zrotation Yrotation Xrotation
										End Site
										{
											OFFSET -0.47955 -0.00000 0.00000
										}
									}
								}
								JOINT RThumb
								{
									OFFSET 0 0 0
									CHANNELS 3 Zrotation Yrotation Xrotation
									End Site
									{
										OFFSET -0.48687 -0.00000 0.48687
									}
								}
							}
						}
					}
				}
			}
		}
	}
}
MOTION
Frames: 10
Frame Time: 0.0444444
0.00 0.00 0.00 0 0 0 0 0 0 -21 0 0 0 0 0 0 0 0 0 0 0 0 0 0 21 0 0 0 0 0 0 0 0 0 0 0 0 0 0 0 0 0 0 0 0 0 0 -16 0 0 21 0 0 11 0 0 0 -8 0 0 0 0 0 0 0 0 0 0 0 0 0 0 0 0 0 0 0 0 8 0 0 0 0 0 0 0 0 0 0 0 0 0 0 0 0 0
0.00 0.00 0.00 -34.2515 -86.9661 38.8152 0.0000 0.0000 0.0000 -3.4300 -3.8811 7.4481 0.0032 -0.3633 -0.9983 1.8826 -1.8803 -25.4364 3.0536 10.7814 31.5460 0.0000 0.0000 0.0000 13.7206 11.9069 11.8936 -0.0149 0.7874 -2.1641 -0.9720 -18.2192 -32.6659 -0.0307 -1.1310 3.1093 1.8015 1.7930 -8.2934 -1.1750 2.2428 -0.9315 -1.9727 1.1371 3.7999 0.7585 2.8534 -1.3498 3.5483 3.6777 2.4888 1.0079 1.8786 0.9327 0.0000 -0.0000 0.0000 -18.6916 -1.7737 26.2691 12.3368 -20.3079 -2.2178 -0.0000 0.0000 -9.2732 2.4154 -8.1344 -0.3420 -7.1250 0.0000 -0.0000 -17.5483 21.9401 10.1972 0.0000 -0.0000 0.0000 26.8050 -2.4194 0.4635 -10.7674 17.9309 -1.7036 0.0000 0.0000 17.1508 3.3603 -44.0711 -2.3386 7.1250 -0.0000 -0.0000 54.6509 -66.0672 -31.6611
0.00 0.00 0.00 -10.5898 -87.3414 17.1767 0.0000 0.0000 0.0000 -4.8133 -2.4202 5.2469 0.0081 -0.5803 -1.5946 1.5816 -0.3156 -23.6989 1.9415 8.7431 24.9950 0.0000 0.0000 0.0000 12.5534 14.7346 11.9832 -0.0344 1.1981 -3.2939 -1.2131 -19.7319 -35.6253 -0.0919 -1.9554 5.3823 1.6138 1.7338 -6.3771 -1.4621 2.1250 -4.1122 -2.2841 0.9744 -0.5492 -1.5874 -0.4551 -1.4264 5.6514 -0.9677 6.4095 2.0667 -0.4037 2.3238 -0.0000 -0.0000 0.0000 3.8273 0.5498 -6.9388 12.4092 -20.4155 -2.2430 -0.0000 0.0000 -9.6011 11.6198 -7.3140 -1.4996 -7.1250 0.0000 -0.0000 -11.0641 22.5528 6.0856 -0.0000 -0.0000 0.0000 1.2565 -4.7267 -21.8239 -11.7057 19.3618 -2.0036 0.0000 0.0000 14.4589 -6.6340 -43.7029 4.5942 7.1250 -0.0000 -0.0000 44.8659 -68.9539 -27.7082
0.00 0.00 0.00 13.2217 -84.2774 -6.9912 0.0000 0.0000 0.0000 -4.3376 2.8273 -6.3711 0.5297 4.6636 12.9517 0.6852 -7.3453 -14.8629 2.0586 8.9872 25.7551 0.0000 0.0000 0.0000 11.9332 13.6755 12.5549 -0.0403 1.2951 -3.5611 -1.4582 -20.9590 -38.1452 -0.1544 -2.5323 6.9792 3.4775 1.0247 -2.6009 -0.1040 1.2736 -3.6059 -2.0446 0.5269 -2.1704 1.6026 4.8750 -1.4069 -4.1633 6.4547 -0.9587 -1.5053 3.2116 0.1363 0.0000 0.0000 0.0000 3.8605 -5.0453 -12.0241 11.0640 -18.3863 -1.7961 -0.0000 0.0000 -11.7077 11.8830 -5.7666 -1.2112 -7.1250 0.0000 -0.0000 -10.9756 24.0964 5.6379 0.0000 0.0000 0.0000 10.5746 -2.6795 -36.7128 -10.7312 17.8751 -1.6925 0.0000 0.0000 8.6901 -9.5628 -46.3281 6.9475 7.1250 -0.0000 -0.0000 47.8252 -71.6484 -32.4500
0.00 0.00 0.00 -3.1411 -80.4851 10.8524 0.0000 0.0000 0.0000 -1.8736 5.5678 -20.7472 2.5935 10.0060 28.9961 -0.1828 -11.5992 -5.1559 3.8811 12.0005 35.7338 0.0000 0.0000 0.0000 13.7633 14.6342 12.0466 -0.0630 1.6198 -4.4561 -2.0162 -22.8297 -42.5375 -0.3622 -3.8661 10.7002 5.4894 1.4908 -0.8006 0.4785 2.0094 -3.4530 -2.6107 0.8392 -2.9431 2.6619 7.0498 -2.9297 -7.8438 9.3893 0.0254 -2.7464 4.6059 1.0542 -0.0000 -0.0000 0.0000 5.1658 -8.3551 -13.5624 11.3051 -18.7544 -1.8728 -0.0000 0.0000 -12.6340 13.2691 -6.5980 -1.5521 -7.1250 0.0000 -0.0000 -9.9067 23.2237 5.2741 -0.0000 -0.0000 0.0000 11.6691 -3.9199 -50.0154 -10.7369 17.8838 -1.6942 0.0000 -0.0000 -2.1487 -13.4418 -49.9579 10.3690 7.1250 -0.0000 -0.0000 54.9853 -75.0969 -41.6156
0.00 0.00 0.00 -20.4043 -73.2795 28.8758 0.0000 0.0000 0.0000 4.6491 8.1654 -33.0040 4.4535 12.7406 38.4050 0.9643 -5.3588 -17.5384 1.9652 8.7931 25.1504 0.0000 0.0000 0.0000 15.8204 6.9015 6.9626 -0.0092 0.6182 -1.6988 -1.6659 -21.7466 -39.9271 -0.1296 -2.3208 6.3932 5.6095 2.2230 1.6496 -0.0896 3.1465 -2.8587 -3.3722 1.4001 -3.5767 5.6261 10.9564 -2.9365 -13.4527 14.6222 -0.4817 -4.4001 7.1447 1.7695 -0.0000 0.0000 0.0000 10.4059 -9.8715 -16.5873 11.5008 -19.0517 -1.9362 -0.0000 0.0000 -11.8942 17.5517 -7.0537 -2.2243 -7.1250 0.0000 -0.0000 -6.7560 22.6006 3.6656 -0.0000 0.0000 0.0000 9.4005 -0.0802 -62.5092 -10.3219 17.2416 -1.5690 0.0000 -0.0000 -7.9695 -18.9207 -51.9101 15.0980 7.1250 -0.0000 -0.0000 59.2056 -78.1049 -48.2917
0.00 0.00 0.00 -32.1483 -57.6072 41.3898 0.0000 0.0000 0.0000 12.2154 13.6791 -52.1813 8.2540 16.3029 53.4725 1.5875 -3.3747 -22.9729 3.6572 11.6896 34.6427 0.0000 0.0000 0.0000 22.0928 -7.1505 -3.8056 -0.4104 -4.1127 11.3938 -2.3616 -14.8385 -37.3391 -0.2724 3.3570 -9.2743 3.7418 2.4284 4.8662 -2.3901 3.3886 -2.0082 -4.8719 1.5358 -4.4520 5.8887 11.1367 -2.9605 -13.5441 14.3426 -5.5826 -4.6510 7.1704 0.2761 -0.0000 -0.0000 0.0000 14.2847 -11.2292 -19.6134 11.6544 -19.2844 -1.9867 -0.0000 0.0000 -11.4098 22.4996 -5.4854 -2.2674 -7.1250 0.0000 -0.0000 -3.1203 24.0466 1.5803 -0.0000 -0.0000 0.0000 -9.2203 6.9321 -61.5767 -11.6967 19.3482 -2.0007 0.0000 -0.0000 -13.3654 -27.3042 -44.1690 19.7835 7.1250 -0.0000 -0.0000 22.2804 -76.6676 -16.7015
0.00 0.00 0.00 -30.5227 -49.3320 40.9066 0.0000 0.0000 0.0000 5.8242 14.3469 -67.3572 13.2701 18.8775 69.9622 2.8326 -4.8606 -30.7826 2.9277 10.5771 30.8664 0.0000 0.0000 0.0000 20.9444 -11.4179 -10.8476 -2.0422 -8.9535 25.6500 -2.9557 -11.4531 -37.9950 -1.4582 7.6324 -21.6030 0.0237 2.3307 9.0966 -5.0218 2.7731 -0.0221 -5.6456 1.2825 -4.8778 4.6422 9.9859 -3.4709 -11.7363 12.8001 -6.3379 -4.4239 6.4299 -0.2676 -0.0000 0.0000 0.0000 14.3016 -13.9991 -19.8807 11.4266 -18.9391 -1.9121 -0.0000 0.0000 -12.8922 26.7136 -4.1728 -2.0972 -7.1250 0.0000 -0.0000 0.0545 25.3104 -0.0260 -0.0000 0.0000 0.0000 -21.6642 12.4336 -64.0769 -13.0381 21.3431 -2.4672 0.0000 -0.0000 -16.8060 -29.1667 -42.7050 20.7331 7.1250 -0.0000 -0.0000 16.0486 -76.1025 -11.7863
0.00 0.00 0.00 -29.6740 -35.0023 46.7299 0.0000 0.0000 0.0000 7.2425 5.7552 -80.5452 18.0600 19.9095 84.3197 4.2456 -9.4437 -37.5516 2.4436 9.7347 28.1218 0.0000 0.0000 0.0000 26.1630 -9.2113 -12.3421 -2.2305 -9.3306 26.8351 -3.1922 -13.2109 -40.2385 -1.3266 7.2940 -20.5894 -1.9195 1.8421 13.0570 -8.5470 1.4668 1.8196 -8.3294 0.6073 -5.2359 5.3536 6.9314 -5.1040 -8.8281 8.5421 -10.4338 -3.7817 4.2861 -1.8109 -0.0000 0.0000 0.0000 20.7909 -30.1434 -55.5761 7.6962 -13.0592 -0.8822 -0.0000 -0.0000 7.5080 25.3124 -2.3391 -1.1059 -7.1250 0.0000 -0.0000 -0.9809 27.3921 0.4197 -0.0000 0.0000 0.0000 -32.1816 20.0040 -76.5268 -13.8366 22.5007 -2.7653 0.0000 -0.0000 -16.6821 -31.6727 -41.3467 22.1742 7.1250 -0.0000 -0.0000 9.3477 -75.7761 -6.7768
0.00 0.00 0.00 -26.7308 -24.2697 54.1419 0.0000 0.0000 0.0000 11.3734 -1.6975 -88.0424 18.1754 19.9200 84.6585 3.4668 -12.9780 -33.7211 2.5111 9.8581 28.5183 0.0000 0.0000 0.0000 27.8434 -5.6776 -12.7276 -0.9432 -6.1855 17.3237 -0.0663 -20.3888 -29.2885 -0.2204 -3.0224 8.3411 -6.3730 0.5353 15.6411 -8.8886 -1.1453 2.4990 -5.7153 -0.5754 -6.1977 6.5443 4.9733 -6.4763 -6.2464 5.8434 -15.1410 -3.2873 2.7937 -3.4436 -0.0000 -0.0000 0.0000 29.3961 -37.5981 -78.5079 7.5281 -12.7851 -0.8446 -0.0000 -0.0000 7.1933 25.2566 3.9685 1.8701 -7.1250 0.0000 -0.0000 -1.1362 34.3645 0.2966 -0.0000 -0.0000 0.0000 -36.1103 20.2677 -77.7866 -16.0667 25.6111 -3.6748 0.0000 -0.0000 -18.8911 -31.9959 -42.5342 22.8974 7.1250 -0.0000 -0.0000 10.9583 -77.0243 -8.2365
